<mxfile host="app.diagrams.net" agent="Mozilla/5.0 (Windows NT 10.0; Win64; x64) AppleWebKit/537.36 (KHTML, like Gecko) Chrome/131.0.0.0 Safari/537.36" version="24.8.6">
  <diagram name="Pagina-1" id="hxITrgZi2Cy6yLGc67oQ">
    <mxGraphModel dx="1363" dy="869" grid="1" gridSize="10" guides="1" tooltips="1" connect="1" arrows="1" fold="1" page="1" pageScale="1" pageWidth="827" pageHeight="1169" math="0" shadow="0">
      <root>
        <mxCell id="0" />
        <mxCell id="1" parent="0" />
        <mxCell id="AyICxBFnd3xkKCrnKTq8-22" style="edgeStyle=none;curved=1;rounded=0;orthogonalLoop=1;jettySize=auto;html=1;entryX=0;entryY=0.5;entryDx=0;entryDy=0;fontSize=12;startSize=8;endSize=8;" edge="1" parent="1" source="AyICxBFnd3xkKCrnKTq8-1" target="AyICxBFnd3xkKCrnKTq8-2">
          <mxGeometry relative="1" as="geometry" />
        </mxCell>
        <mxCell id="AyICxBFnd3xkKCrnKTq8-1" value="generatore&amp;nbsp;&lt;div&gt;di eventi&lt;/div&gt;" style="ellipse;whiteSpace=wrap;html=1;aspect=fixed;fillColor=none;" vertex="1" parent="1">
          <mxGeometry x="270" y="225" width="70" height="70" as="geometry" />
        </mxCell>
        <mxCell id="AyICxBFnd3xkKCrnKTq8-2" value="" style="rounded=0;whiteSpace=wrap;html=1;fillColor=none;" vertex="1" parent="1">
          <mxGeometry x="400" y="240" width="40" height="40" as="geometry" />
        </mxCell>
        <mxCell id="AyICxBFnd3xkKCrnKTq8-3" value="" style="rounded=0;whiteSpace=wrap;html=1;fillColor=none;" vertex="1" parent="1">
          <mxGeometry x="440" y="240" width="40" height="40" as="geometry" />
        </mxCell>
        <mxCell id="AyICxBFnd3xkKCrnKTq8-4" value="" style="rounded=0;whiteSpace=wrap;html=1;fillColor=none;" vertex="1" parent="1">
          <mxGeometry x="480" y="240" width="40" height="40" as="geometry" />
        </mxCell>
        <mxCell id="AyICxBFnd3xkKCrnKTq8-26" style="edgeStyle=none;curved=1;rounded=0;orthogonalLoop=1;jettySize=auto;html=1;entryX=0;entryY=0.5;entryDx=0;entryDy=0;fontSize=12;startSize=8;endSize=8;" edge="1" parent="1" source="AyICxBFnd3xkKCrnKTq8-5" target="AyICxBFnd3xkKCrnKTq8-6">
          <mxGeometry relative="1" as="geometry" />
        </mxCell>
        <mxCell id="AyICxBFnd3xkKCrnKTq8-5" value="" style="rounded=0;whiteSpace=wrap;html=1;fillColor=none;" vertex="1" parent="1">
          <mxGeometry x="520" y="240" width="40" height="40" as="geometry" />
        </mxCell>
        <mxCell id="AyICxBFnd3xkKCrnKTq8-21" style="edgeStyle=none;curved=0;rounded=0;orthogonalLoop=1;jettySize=auto;html=1;entryX=0.5;entryY=0;entryDx=0;entryDy=0;fontSize=12;startSize=8;endSize=8;" edge="1" parent="1" source="AyICxBFnd3xkKCrnKTq8-6" target="AyICxBFnd3xkKCrnKTq8-7">
          <mxGeometry relative="1" as="geometry">
            <Array as="points">
              <mxPoint x="750" y="260" />
            </Array>
          </mxGeometry>
        </mxCell>
        <mxCell id="AyICxBFnd3xkKCrnKTq8-6" value="RMPO&lt;div&gt;EDF&amp;nbsp;&lt;/div&gt;&lt;div&gt;TS&lt;/div&gt;" style="ellipse;whiteSpace=wrap;html=1;aspect=fixed;fillColor=none;" vertex="1" parent="1">
          <mxGeometry x="640" y="225" width="70" height="70" as="geometry" />
        </mxCell>
        <mxCell id="AyICxBFnd3xkKCrnKTq8-27" style="edgeStyle=none;curved=1;rounded=0;orthogonalLoop=1;jettySize=auto;html=1;entryX=0;entryY=0.5;entryDx=0;entryDy=0;fontSize=12;startSize=8;endSize=8;" edge="1" parent="1" source="AyICxBFnd3xkKCrnKTq8-7" target="AyICxBFnd3xkKCrnKTq8-16">
          <mxGeometry relative="1" as="geometry" />
        </mxCell>
        <mxCell id="AyICxBFnd3xkKCrnKTq8-7" value="Servizio in background" style="rounded=1;whiteSpace=wrap;html=1;fillColor=none;" vertex="1" parent="1">
          <mxGeometry x="710" y="295" width="80" height="45" as="geometry" />
        </mxCell>
        <mxCell id="AyICxBFnd3xkKCrnKTq8-24" style="edgeStyle=none;curved=1;rounded=0;orthogonalLoop=1;jettySize=auto;html=1;entryX=0;entryY=0.5;entryDx=0;entryDy=0;fontSize=12;startSize=8;endSize=8;" edge="1" parent="1" source="AyICxBFnd3xkKCrnKTq8-8" target="AyICxBFnd3xkKCrnKTq8-9">
          <mxGeometry relative="1" as="geometry" />
        </mxCell>
        <mxCell id="AyICxBFnd3xkKCrnKTq8-8" value="generatore&amp;nbsp;&lt;div&gt;di eventi&lt;/div&gt;" style="ellipse;whiteSpace=wrap;html=1;aspect=fixed;fillColor=none;" vertex="1" parent="1">
          <mxGeometry x="270" y="340" width="70" height="70" as="geometry" />
        </mxCell>
        <mxCell id="AyICxBFnd3xkKCrnKTq8-9" value="" style="rounded=0;whiteSpace=wrap;html=1;fillColor=none;" vertex="1" parent="1">
          <mxGeometry x="400" y="355" width="40" height="40" as="geometry" />
        </mxCell>
        <mxCell id="AyICxBFnd3xkKCrnKTq8-10" value="" style="rounded=0;whiteSpace=wrap;html=1;fillColor=none;" vertex="1" parent="1">
          <mxGeometry x="440" y="355" width="40" height="40" as="geometry" />
        </mxCell>
        <mxCell id="AyICxBFnd3xkKCrnKTq8-11" value="" style="rounded=0;whiteSpace=wrap;html=1;fillColor=none;" vertex="1" parent="1">
          <mxGeometry x="480" y="355" width="40" height="40" as="geometry" />
        </mxCell>
        <mxCell id="AyICxBFnd3xkKCrnKTq8-25" style="edgeStyle=none;curved=1;rounded=0;orthogonalLoop=1;jettySize=auto;html=1;entryX=0;entryY=0.5;entryDx=0;entryDy=0;fontSize=12;startSize=8;endSize=8;" edge="1" parent="1" source="AyICxBFnd3xkKCrnKTq8-12" target="AyICxBFnd3xkKCrnKTq8-13">
          <mxGeometry relative="1" as="geometry" />
        </mxCell>
        <mxCell id="AyICxBFnd3xkKCrnKTq8-12" value="" style="rounded=0;whiteSpace=wrap;html=1;fillColor=none;" vertex="1" parent="1">
          <mxGeometry x="520" y="355" width="40" height="40" as="geometry" />
        </mxCell>
        <mxCell id="AyICxBFnd3xkKCrnKTq8-20" style="edgeStyle=none;curved=0;rounded=0;orthogonalLoop=1;jettySize=auto;html=1;entryX=0.5;entryY=1;entryDx=0;entryDy=0;fontSize=12;startSize=8;endSize=8;" edge="1" parent="1" source="AyICxBFnd3xkKCrnKTq8-13" target="AyICxBFnd3xkKCrnKTq8-7">
          <mxGeometry relative="1" as="geometry">
            <Array as="points">
              <mxPoint x="750" y="375" />
            </Array>
          </mxGeometry>
        </mxCell>
        <mxCell id="AyICxBFnd3xkKCrnKTq8-13" value="FIFO" style="ellipse;whiteSpace=wrap;html=1;aspect=fixed;fillColor=none;" vertex="1" parent="1">
          <mxGeometry x="640" y="340" width="70" height="70" as="geometry" />
        </mxCell>
        <mxCell id="AyICxBFnd3xkKCrnKTq8-14" value="coda soft real time" style="text;html=1;align=center;verticalAlign=middle;whiteSpace=wrap;rounded=0;fontSize=16;" vertex="1" parent="1">
          <mxGeometry x="400" y="325" width="160" height="30" as="geometry" />
        </mxCell>
        <mxCell id="AyICxBFnd3xkKCrnKTq8-15" value="coda hard real time" style="text;html=1;align=center;verticalAlign=middle;whiteSpace=wrap;rounded=0;fontSize=16;" vertex="1" parent="1">
          <mxGeometry x="400" y="210" width="160" height="30" as="geometry" />
        </mxCell>
        <mxCell id="AyICxBFnd3xkKCrnKTq8-16" value="unitÃ  di calcolo" style="rounded=0;whiteSpace=wrap;html=1;fillColor=none;" vertex="1" parent="1">
          <mxGeometry x="850" y="298.75" width="120" height="37.5" as="geometry" />
        </mxCell>
        <mxCell id="AyICxBFnd3xkKCrnKTq8-28" value="" style="rounded=1;whiteSpace=wrap;html=1;fillColor=none;dashed=1;" vertex="1" parent="1">
          <mxGeometry x="610" y="210" width="200" height="210" as="geometry" />
        </mxCell>
      </root>
    </mxGraphModel>
  </diagram>
</mxfile>
